HIERARCHY
ROOT joint_Root
{
	OFFSET 0.0 0.0 0.0
	CHANNELS 6 Xposition Yposition Zposition Zrotation Xrotation Yrotation 
	JOINT Hips
	{
		OFFSET -17.1583 93.1646 452.98
		CHANNELS 6 Xposition Yposition Zposition Zrotation Xrotation Yrotation 
		JOINT Spine
		{
			OFFSET 15.7357 0.0 0.0
			CHANNELS 6 Xposition Yposition Zposition Zrotation Xrotation Yrotation 
			JOINT Chest
			{
				OFFSET 8.98455 -0.406207 0.0
				CHANNELS 6 Xposition Yposition Zposition Zrotation Xrotation Yrotation 
				JOINT Neck
				{
					OFFSET 16.3773 0.0 0.0
					CHANNELS 6 Xposition Yposition Zposition Zrotation Xrotation Yrotation 
					JOINT Head
					{
						OFFSET 6.45672 0.0 0.0
						CHANNELS 6 Xposition Yposition Zposition Zrotation Xrotation Yrotation 
						End Site
						{
							OFFSET 0.0 0.0 0.0
						}
					}
				}
				JOINT Shoulder_L
				{
					OFFSET 12.9942 -0.242716 4.98039
					CHANNELS 6 Xposition Yposition Zposition Zrotation Xrotation Yrotation 
					JOINT UpperArm_L
					{
						OFFSET 5.34809 0.0 0.0
						CHANNELS 6 Xposition Yposition Zposition Zrotation Xrotation Yrotation 
						JOINT LowerArm_L
						{
							OFFSET 24.3286 1.87007e-05 0.0
							CHANNELS 6 Xposition Yposition Zposition Zrotation Xrotation Yrotation 
							JOINT Hand_L
							{
								OFFSET 22.2916 0.0 0.0
								CHANNELS 6 Xposition Yposition Zposition Zrotation Xrotation Yrotation 
								End Site
								{
									OFFSET 0.0 0.0 0.0
								}
							}
						}
					}
				}
				JOINT Shoulder_R
				{
					OFFSET 12.9945 -0.242716 -4.98039
					CHANNELS 6 Xposition Yposition Zposition Zrotation Xrotation Yrotation 
					JOINT UpperArm_R
					{
						OFFSET -5.34813 0.0 0.0
						CHANNELS 6 Xposition Yposition Zposition Zrotation Xrotation Yrotation 
						JOINT LowerArm_R
						{
							OFFSET -24.3289 0.000322201 0.0
							CHANNELS 6 Xposition Yposition Zposition Zrotation Xrotation Yrotation 
							JOINT Hand_R
							{
								OFFSET -22.2915 -0.000108084 0.0
								CHANNELS 6 Xposition Yposition Zposition Zrotation Xrotation Yrotation 
								End Site
								{
									OFFSET 0.0 0.0 0.0
								}
							}
						}
					}
				}
			}
		}
		JOINT UpperLeg_L
		{
			OFFSET -2.19248 -6.46944 0.0
			CHANNELS 6 Xposition Yposition Zposition Zrotation Xrotation Yrotation 
			JOINT LowerLeg_L
			{
				OFFSET 39.0811 0.0 -1.23785e-05
				CHANNELS 6 Xposition Yposition Zposition Zrotation Xrotation Yrotation 
				JOINT Foot_L
				{
					OFFSET 40.9854 0.0 -1.26872e-05
					CHANNELS 6 Xposition Yposition Zposition Zrotation Xrotation Yrotation 
					JOINT Toes_L
					{
						OFFSET 11.7543 0.0 0.0
						CHANNELS 6 Xposition Yposition Zposition Zrotation Xrotation Yrotation 
						End Site
						{
							OFFSET 0.0 0.0 0.0
						}
					}
				}
			}
		}
		JOINT UpperLeg_R
		{
			OFFSET -2.19251 6.46944 0.0
			CHANNELS 6 Xposition Yposition Zposition Zrotation Xrotation Yrotation 
			JOINT LowerLeg_R
			{
				OFFSET -39.0811 -0.00228153 -0.0401928
				CHANNELS 6 Xposition Yposition Zposition Zrotation Xrotation Yrotation 
				JOINT Foot_R
				{
					OFFSET -40.9854 0.0 0.0
					CHANNELS 6 Xposition Yposition Zposition Zrotation Xrotation Yrotation 
					JOINT Toes_R
					{
						OFFSET -11.7543 0.0 0.0
						CHANNELS 6 Xposition Yposition Zposition Zrotation Xrotation Yrotation 
						End Site
						{
							OFFSET 0.0 0.0 0.0
						}
					}
				}
			}
		}
	}
}
MOTION
Frames:	4
Frame Time:	0.0333333
0.000000 0.000000 0.000000 0.000000 0.000000 -0.000000 -4.652540 90.334000 452.911000 -85.982600 3.265220 156.275000 15.735700 0.000005 -0.000001 43.612800 84.010000 -40.630300 8.984550 -0.406207 -0.000000 0.749136 -8.853420 6.027850 16.377300 -0.000001 -0.000001 -7.076070 6.634740 -2.550950 6.456720 -0.000001 -0.000000 -3.030700 11.100400 -5.226140 12.994200 -0.242716 4.980390 -91.092400 4.226070 -75.493000 5.348090 -0.000007 -0.000001 -73.411000 -6.520400 -3.040280 24.328600 0.000019 0.000005 48.769000 -6.785470 -95.910900 22.291600 -0.000001 0.000005 47.906200 3.968850 24.665900 12.994500 -0.242716 -4.980390 90.505900 -2.108510 -76.504700 -5.348130 -0.000001 -0.000004 -57.238300 -15.969600 31.654400 -24.328900 0.000322 -0.000009 1.694220 3.756060 -24.312600 -22.291500 -0.000108 -0.000004 54.643800 5.368790 -1.953710 -2.192480 -6.469440 -0.000000 -179.526000 -3.228480 1.061640 39.081100 -0.000007 -0.000012 -0.014065 0.048303 16.234500 40.985400 -0.000006 -0.000013 0.009036 7.388360 -30.811200 11.754300 -0.000000 0.000003 -0.009209 -0.097637 -20.554000 -2.192510 6.469440 -0.000001 -176.448000 -10.310500 128.809000 -39.081100 -0.002282 -0.040193 0.006163 -0.004352 33.391000 -40.985400 0.000008 0.000006 -8.942090 -8.875610 -76.364000 -11.754300 -0.000006 -0.000006 -0.001518 0.190181 -8.858070
0.000000 0.000000 0.000000 0.000000 0.000000 -0.000000 -4.669120 89.457500 445.412000 -87.056300 3.096480 157.489000 15.735700 0.000005 -0.000001 45.188200 83.808300 -42.269800 8.984550 -0.406207 -0.000000 1.270590 -8.889180 5.939870 16.377300 -0.000001 -0.000001 -7.761910 6.833490 -3.005110 6.456720 -0.000001 -0.000000 -2.832780 10.866900 -5.525630 12.994200 -0.242716 4.980390 -91.019900 4.067970 -75.913200 5.348090 -0.000007 -0.000001 -73.328400 1.540690 -0.963383 24.328600 0.000019 0.000005 47.975200 -2.389910 -92.152400 22.291600 -0.000001 0.000005 45.410800 4.122310 22.458500 12.994500 -0.242716 -4.980390 90.311800 -1.327110 -76.775700 -5.348130 -0.000001 -0.000004 -57.196600 -16.772400 31.649300 -24.328900 0.000322 -0.000009 0.658957 1.604660 -22.344000 -22.291500 -0.000108 -0.000004 54.048800 5.363890 -1.803060 -2.192480 -6.469440 -0.000000 179.184000 -2.279860 -1.080330 39.081100 -0.000007 -0.000012 -0.028048 0.056894 26.243000 40.985400 -0.000006 -0.000013 -2.988250 6.684950 -23.050400 11.754300 -0.000000 0.000003 0.000829 0.015364 -15.953700 -2.192510 6.469440 -0.000001 -175.752000 -9.848060 130.900000 -39.081100 -0.002282 -0.040193 0.230189 -0.364569 31.896500 -40.985400 0.000008 0.000006 -1.924500 -11.953500 -75.935700 -11.754300 -0.000006 -0.000006 -0.000597 0.177174 -9.386670
0.000000 0.000000 0.000000 0.000000 0.000000 -0.000000 -4.465210 87.498400 437.682000 -86.901900 2.054410 159.258000 15.735700 0.000005 -0.000001 51.441800 83.502600 -48.019400 8.984550 -0.406207 -0.000000 2.676680 -8.244910 7.040230 16.377300 -0.000001 -0.000001 -8.334640 6.454750 -3.077560 6.456720 -0.000001 -0.000000 -3.520600 10.374900 -6.600380 12.994200 -0.242716 4.980390 -91.012200 4.061100 -75.992800 5.348090 -0.000007 -0.000001 -75.411300 10.716300 -0.034805 24.328600 0.000019 0.000005 49.830700 5.360070 -85.496200 22.291600 -0.000001 0.000005 42.679800 4.319270 19.489900 12.994500 -0.242716 -4.980390 90.191900 -0.814374 -76.738100 -5.348130 -0.000001 -0.000004 -59.130700 -18.077200 28.055000 -24.328900 0.000322 -0.000009 -0.446207 -1.261340 -19.443900 -22.291500 -0.000108 -0.000004 55.472900 5.323650 -0.601186 -2.192480 -6.469440 -0.000000 179.791000 -2.090820 -5.186070 39.081100 -0.000007 -0.000012 -0.074129 0.082703 41.871600 40.985400 -0.000006 -0.000013 -1.560760 6.923790 -26.174300 11.754300 -0.000000 0.000003 0.000919 0.017248 -15.877200 -2.192510 6.469440 -0.000001 -172.518000 -6.824150 131.440000 -39.081100 -0.002282 -0.040193 0.580631 -0.626845 42.648400 -40.985400 0.000008 0.000006 3.939150 -11.012400 -74.357300 -11.754300 -0.000006 -0.000006 -0.001436 0.189089 -8.902450
0.000000 0.000000 0.000000 0.000000 0.000000 -0.000000 -4.253990 84.987800 430.229000 -86.008800 0.890682 161.367000 15.735700 0.000005 -0.000001 60.091100 83.226200 -56.135200 8.984550 -0.406207 -0.000000 4.252140 -6.865890 8.165920 16.377300 -0.000001 -0.000001 -8.657370 5.505670 -2.013210 6.456720 -0.000001 -0.000000 -4.018320 9.870160 -7.624200 12.994200 -0.242716 4.980390 -91.379700 5.500730 -75.896100 5.348090 -0.000007 -0.000001 -78.453100 13.893200 0.851922 24.328600 0.000019 0.000005 55.667400 18.256600 -77.923400 22.291600 -0.000001 0.000005 46.045800 4.368220 18.726100 12.994500 -0.242716 -4.980390 89.783300 0.883216 -76.222300 -5.348130 -0.000001 -0.000004 -61.857000 -16.659000 22.515200 -24.328900 0.000322 -0.000009 -0.706694 -1.956050 -19.843700 -22.291500 -0.000108 -0.000004 54.805300 5.344250 -1.206330 -2.192480 -6.469440 -0.000000 -178.232000 -2.834640 -12.077700 39.081100 -0.000007 -0.000012 0.003375 -0.001907 60.464000 40.985400 -0.000006 -0.000013 -2.305970 0.753442 -30.586000 11.754300 -0.000000 0.000003 0.001399 0.028369 -15.426000 -2.192510 6.469440 -0.000001 -169.536000 -2.567580 133.667000 -39.081100 -0.002282 -0.040193 0.748290 -0.571776 52.498300 -40.985400 0.000008 0.000006 3.319890 -8.888230 -81.545600 -11.754300 -0.000006 -0.000006 -0.007892 0.254815 -6.224910
